<svg xmlns="http://www.w3.org/2000/svg" width="1200" height="800" viewBox="0 0 1200 800">
  <defs>
    <linearGradient id="g" x1="0" x2="1" y1="0" y2="1">
      <stop offset="0" stop-color="#07121f"/>
      <stop offset="0.55" stop-color="#111827"/>
      <stop offset="1" stop-color="#030712"/>
    </linearGradient>
    <radialGradient id="lamp" cx="50%" cy="28%" r="58%">
      <stop offset="0" stop-color="#0ea5e9" stop-opacity="0.35"/>
      <stop offset="1" stop-color="#0ea5e9" stop-opacity="0"/>
    </radialGradient>
    <filter id="soft" x="-20%" y="-20%" width="140%" height="140%">
      <feGaussianBlur stdDeviation="18"/>
    </filter>
  </defs>
  <rect width="1200" height="800" fill="url(#g)"/>
  <rect width="1200" height="800" fill="url(#lamp)"/>
  <rect x="105" y="110" width="990" height="560" rx="44" fill="#0f172a" stroke="#0ea5e9" stroke-opacity="0.32" stroke-width="3"/>
  <rect x="165" y="185" width="405" height="270" rx="26" fill="#172033" stroke="#f6f2e8" stroke-opacity="0.12"/>
  <rect x="620" y="170" width="405" height="300" rx="30" fill="#0a0f1a" stroke="#d6a24b" stroke-opacity="0.42"/>
  <rect x="650" y="205" width="345" height="220" rx="22" fill="#111827"/>
  <rect x="160" y="485" width="870" height="80" rx="20" fill="#020617" stroke="#f6f2e8" stroke-opacity="0.08"/>
  <rect x="210" y="520" width="315" height="16" rx="8" fill="#0ea5e9" opacity="0.75"/>
  <rect x="650" y="520" width="250" height="16" rx="8" fill="#d6a24b" opacity="0.8"/>
  <circle cx="910" cy="260" r="95" fill="#0ea5e9" opacity="0.18" filter="url(#soft)"/>
  <circle cx="330" cy="260" r="120" fill="#d6a24b" opacity="0.14" filter="url(#soft)"/>
  <text x="155" y="640" fill="#f6f2e8" opacity="0.82" font-family="Inter, Arial" font-size="34" font-weight="700">PulseLore Hotel</text>
  <text x="155" y="682" fill="#d6a24b" opacity="0.9" font-family="Inter, Arial" font-size="18" font-weight="700" letter-spacing="5">ROOM 1 PREVIEW</text>
</svg>